<svg width="141" height="64" viewBox="0 0 141 64" fill="none" xmlns="http://www.w3.org/2000/svg">
<path d="M134.725 36.6234C133.963 36.6234 133.344 35.9664 133.344 35.159C133.344 34.3493 133.963 33.6964 134.725 33.6964C135.488 33.6964 136.107 34.3493 136.107 35.159C136.107 35.9664 135.488 36.6234 134.725 36.6234ZM134.725 33.3414C133.779 33.3414 133.008 34.1517 133.008 35.159C133.008 36.1636 133.779 36.9812 134.725 36.9812C135.674 36.9812 136.446 36.1636 136.446 35.159C136.446 34.1517 135.674 33.3414 134.725 33.3414Z" fill="#F05D26"/>
<path d="M134.436 35.4479H134.545L134.654 35.4533C134.729 35.4587 134.789 35.4654 134.825 35.4844C134.89 35.509 134.942 35.5578 134.965 35.6218C134.983 35.6659 134.993 35.7411 134.993 35.8525C134.998 35.9666 135.009 36.0547 135.027 36.1135H135.506L135.488 36.0608C135.484 36.0427 135.477 36.0254 135.477 36.0051C135.477 35.9878 135.472 35.9712 135.472 35.9508V35.7839C135.472 35.5869 135.42 35.4479 135.303 35.3623C135.241 35.3088 135.149 35.276 135.029 35.249C135.162 35.2369 135.274 35.1918 135.364 35.1226C135.456 35.0537 135.499 34.9359 135.499 34.7789C135.499 34.5694 135.412 34.4199 135.241 34.3288C135.142 34.275 135.018 34.2392 134.861 34.2301C134.837 34.2301 134.705 34.2301 134.469 34.2272H133.932V36.1135H134.436V35.4479ZM134.907 35.0381C134.843 35.0844 134.748 35.1091 134.63 35.1091H134.436V34.5582H134.557C134.684 34.5582 134.779 34.5694 134.85 34.5964C134.953 34.6406 135.004 34.7091 135.004 34.8132C135.004 34.9196 134.974 34.9907 134.907 35.0381Z" fill="#F05D26"/>
<path d="M67.0583 43.2653C68.1976 43.2653 68.4685 44.4055 68.415 45.0439C68.1892 47.6794 64.6233 49.8228 63.72 49.9294C64.2035 44.4801 65.7999 43.3275 67.0583 43.2653ZM31.5243 43.8468C30.8044 44.9437 29.8956 46.1538 28.7812 47.4969C28.8408 46.9451 28.8998 46.421 28.9642 45.9159C29.8588 38.7333 31.1815 36.3212 32.9032 36.6258C33.464 36.7442 33.6931 37.3525 33.7073 37.8448C33.8336 39.4072 33.173 41.331 31.5243 43.8468ZM128.979 50.5426C128.107 49.2259 127.307 47.8141 126.617 46.3834C125.462 48.0231 124.178 49.6715 122.858 51.2399C124.7 51.1932 126.81 51.0044 128.979 50.5426ZM127.196 39.8428C127.916 38.4756 128.37 37.2849 128.428 36.3999C128.493 35.8737 128.405 34.9647 127.661 34.9647C126.375 34.9647 126.375 37.041 127.196 39.8428ZM104.55 48.5138C107.682 44.8601 109.284 39.3798 108.915 37.1331C108.834 36.6624 108.657 36.301 108.193 36.3581C106.73 36.5458 103.319 43.1679 104.55 48.5138ZM86.4882 53.2759C85.2551 52.8775 84.2306 52.1771 83.6296 51.4242C83.5848 51.461 83.5436 51.4934 83.4982 51.5259C83.4931 51.5832 83.4813 51.6425 83.4651 51.699C83.4326 56.2915 84.9962 60.5375 86.7297 60.3336C88.5564 60.0134 87.6946 56.0756 86.4882 53.2759ZM83.7438 47.6725C87.3025 44.1295 90.074 39.0824 90.0556 36.3804C90.0556 35.8602 89.9398 35.4022 89.45 35.4022C88.3369 35.4022 84.7051 39.1281 83.7438 47.6725ZM73.3592 51.1803C71.9294 51.3108 71.6143 54.5754 68.7602 54.7324C66.812 54.8406 65.9193 52.4024 65.9193 52.4024C65.9193 52.4024 71.4321 49.8528 71.3915 44.3475C71.3028 42.7697 70.5183 40.2431 67.6019 40.2431C66.342 40.2431 64.9474 41.0588 64.1199 41.9579C64.4011 40.4686 64.6663 38.5562 64.7911 35.9573C64.8726 34.266 63.6914 34.1027 63.2338 34.1282C62.8937 34.1453 61.9038 34.4063 61.7694 35.9363C61.3184 41.039 61.2501 41.7967 60.8418 45.0426C60.0934 51.0044 55.9514 53.0777 53.2539 52.9207C52.1062 52.8528 50.3105 52.2295 50.3105 49.0765C50.3105 45.6939 52.4279 43.1901 53.5519 43.3437C54.3433 43.4511 54.7516 44.2876 54.0495 45.4877C53.4815 46.4826 52.8865 47.8674 54.352 48.4366C56.0924 49.041 57.3794 46.4788 57.4263 44.1049C57.4263 42.2552 56.2837 40.0955 53.4815 39.9556C50.5324 39.8079 47.0095 43.8863 47.0095 49.3687C47.0095 49.8255 47.0408 50.2534 47.0982 50.6607C46.8853 51.8999 45.8425 53.1701 44.8042 53.1701C43.6763 53.1701 42.7247 51.4745 42.8437 49.3107C42.9697 47.0792 43.6418 45.5935 43.925 44.7049C44.5081 42.8591 43.8171 42.4865 42.9959 42.3265C42.3506 42.2036 41.3259 42.374 40.7864 44.2092C40.2963 45.8741 39.6585 48.1494 39.1035 49.8228C38.7586 50.8631 38.3181 52.05 37.7377 52.8615C37.2281 53.4421 36.6766 53.8243 36.1603 53.8243C34.3378 53.8415 35.8819 50.0934 35.8819 47.5233C35.8641 46.7968 35.3184 45.4709 33.5034 45.8383C35.5129 42.7969 36.5293 40.195 36.4658 37.536C36.3443 34.6168 34.2978 33.7689 32.7529 33.7995C28.6144 33.8884 26.4494 38.6855 25.6633 49.9022C21.934 53.6219 17.3911 55.8675 13.0584 55.4983C6.93066 54.9744 3.77225 48.631 4.18136 41.0246C4.75688 30.3516 12.7316 17.4754 20.3334 18.2663C22.9979 18.5453 24.8356 21.0302 24.5519 26.4159C24.2209 32.6594 19.9619 41.7643 15.4651 41.4972C13.389 41.374 12.7407 39.1281 12.899 37.1418C13.2414 32.8404 15.3077 31.6602 15.4457 29.9162C15.5259 28.8908 14.5319 28.4428 13.8028 28.687C12.5513 29.1094 10.0586 32.3872 9.75468 37.0497C9.38317 42.7458 12.9356 44.5234 15.0416 44.6476C21.2719 45.0177 27.3523 35.8124 27.8642 26.1422C28.1931 19.8834 25.6143 15.8424 20.7322 15.2873C11.2396 14.2112 1.26748 27.3642 0.757722 41.1415C0.451512 49.3792 4.21543 58.0018 12.9938 58.6579C17.1874 58.9426 21.5755 57.1962 25.4149 54.0631C25.4078 54.7649 25.4149 55.3894 25.4128 55.8585C25.4478 57.0126 25.8392 58.0085 27.0402 57.9699C28.1863 57.9278 28.4881 57.0522 28.4611 56.0022C28.4464 55.3925 28.4509 54.8006 28.4644 54.2252C28.7152 49.2085 31.0841 48.4828 32.043 48.6621C33.3654 48.9558 32.3115 50.2254 32.4432 53.8258C32.5367 56.4058 34.5336 57.0937 35.451 57.0937C37.6199 57.0937 39.5034 55.4384 40.6069 52.9725L40.6454 52.943C41.6034 55.4706 43.2286 56.3757 44.5261 56.3757C46.0479 56.3757 47.4885 55.2005 48.3891 53.8965C49.6207 55.5222 51.4326 56.2383 52.7851 56.3044C55.5271 56.4364 57.8572 55.1151 59.6072 53.3422C59.4036 54.7375 59.1576 56.613 59.1576 56.9185C59.1576 57.7471 59.5251 58.3331 60.3 58.4237C61.5755 58.5715 62.5067 57.6704 62.9048 53.2485C62.9048 53.2485 64.7075 57.6139 68.7097 57.6139C72.7208 57.6139 74.4555 53.5552 74.4555 52.317C74.4555 51.9577 74.3274 51.0892 73.3592 51.1803ZM34.8066 27.824C34.8066 26.528 31.4512 24.0741 29.0813 23.8438C29.1092 24.5435 29.1039 25.263 29.0648 26.0108C28.9718 27.778 28.7181 29.5614 28.3258 31.3123C32.6804 28.1208 34.8066 28.9976 34.8066 27.824ZM137.83 57.6286C135.468 57.5002 133.02 55.6706 130.842 53.06C126.995 53.987 123.051 54.1704 120.302 54.1481C118.021 56.6274 115.839 58.6928 114.279 59.8666C114.279 59.8666 112.176 61.5443 111.156 60.1195C110.56 59.1631 110.863 58.1326 112.503 57.0372C113.527 56.3501 114.813 55.2427 116.205 53.8769C113.852 53.1982 114.432 50.615 116.731 50.9124C116.898 50.9353 117.661 51.0495 118.836 51.1389C121.117 48.6289 123.434 45.739 125.222 43.0916C124.38 40.7693 123.888 38.5628 123.888 36.8324C123.888 34.5612 125.115 31.9903 127.613 31.9903C130.03 31.9903 131.268 34.1187 131.268 36.3188C131.268 38.19 130.187 40.7221 128.538 43.4524C129.483 45.5827 130.705 47.7946 132.078 49.6859C133.559 49.1763 135.018 48.506 136.389 47.6418C138.237 46.4728 139.826 48.7243 137.886 50.1665C136.72 50.9398 135.429 51.5682 134.077 52.0776C135.5 53.5296 137 54.506 138.442 54.6377C140.911 54.8602 141.012 57.9005 137.83 57.6286ZM113.736 50.8677C113.447 52.0674 111.957 55.5301 108.157 55.6209H108.074C106.312 55.6492 104.587 54.7495 103.317 53.0943C101.531 54.2874 99.81 54.8623 98.5732 54.665C95.8941 54.2354 95.0916 51.9967 94.8618 50.5366C93.3262 52.4589 91.2842 53.3723 89.3204 53.5612C90.021 55.0097 90.3752 56.75 90.3752 58.3512C90.3752 60.85 89.0056 63.4055 86.5267 63.4055C83.0616 63.4055 80.985 58.2519 80.7147 53.2341C80.1223 53.4668 79.1448 53.6502 78.6907 52.6471C78.1426 51.4419 79.5017 50.3294 80.6491 49.642C80.8494 39.6423 84.9818 32.5683 89.45 32.5683C90.9523 32.5683 92.7615 33.5359 92.7615 36.4415C92.7615 39.486 91.0557 43.3853 88.3047 46.866C87.9306 47.3384 87.061 48.2627 86.0937 49.2106C89.9997 52.1381 92.3682 48.9835 93.3443 47.0464C93.5767 46.5275 93.7715 46.0148 93.9198 45.5647C94.4739 43.8955 94.3149 44.2853 94.8366 42.6305C95.5808 40.2728 96.788 40.3759 97.3341 40.4686C99.2793 40.8108 98.1138 43.0927 97.6378 45.0995L97.6158 45.1482C96.8846 48.568 97.2247 51.282 99.2417 51.7021C99.8858 51.8027 100.997 51.4043 102.133 50.5487C99.4744 43.2575 103.535 34.6259 107.737 33.7939C109.141 33.5163 110.986 34.0612 111.451 36.6889C111.933 39.4459 110.964 43.2876 108.949 46.9451C108.495 47.775 107.183 49.642 105.629 51.0601C105.638 51.0736 105.645 51.0871 105.644 51.0892C106.821 52.7266 108.311 52.6868 108.311 52.6868C110.518 52.6736 111.183 50.8835 111.455 50.1427C111.767 49.2929 112.408 49.0115 113.086 49.2394C113.823 49.4895 113.877 50.291 113.736 50.8677ZM98.0825 35.6842C97.1462 35.6842 96.3875 36.4835 96.3875 37.4774C96.3875 38.4666 97.1462 39.2697 98.0825 39.2697C99.0174 39.2697 99.7727 38.4666 99.7727 37.4774C99.7727 36.4835 99.0174 35.6842 98.0825 35.6842ZM117.156 46.9451C119.317 46.9451 120.154 46.0515 120.154 45.1326C120.154 43.9526 118.818 43.3838 117.158 43.4003C115.46 43.4189 114.252 44.0846 114.252 45.1482C114.252 46.0148 114.995 46.9451 117.156 46.9451ZM76.0206 46.9524C78.1877 46.9524 79.0332 46.0539 79.0332 45.1326C79.0332 43.9466 77.6913 43.3772 76.0206 43.394C74.3157 43.4129 73.1054 44.0817 73.1054 45.1482C73.1054 46.0199 73.853 46.9524 76.0206 46.9524ZM43.8607 37.4755C42.875 37.4755 42.0779 38.3189 42.0779 39.3636C42.0779 40.4039 42.875 41.2474 43.8607 41.2474C44.8424 41.2474 45.6413 40.4039 45.6413 39.3636C45.6413 38.3189 44.8424 37.4755 43.8607 37.4755ZM6.59181 11.2118C5.78254 12.2206 6.03364 13.8588 7.50302 15.1869C8.97147 16.519 11.0109 16.9504 11.8233 15.9431C12.6356 14.9352 11.9114 12.8671 10.4436 11.5386C8.97478 10.2072 7.40788 10.2045 6.59181 11.2118ZM12.4039 4.00455C10.8253 4.77131 10.2647 7.05445 11.4267 9.73991C12.5868 12.426 14.9577 14.3278 16.5351 13.5656C18.1149 12.7979 18.3044 9.6503 17.1433 6.96364C15.9819 4.28059 13.9822 3.2402 12.4039 4.00455ZM24.4268 0.67231C22.3293 0.186394 20.1808 1.99444 19.4543 5.54469C18.7239 9.09343 19.7405 12.8244 21.8389 13.3055C23.9349 13.7887 26.3243 10.8434 27.0508 7.2938C27.7796 3.74446 26.5252 1.15251 24.4268 0.67231ZM39.5761 6.44405C37.9747 4.16332 34.5086 4.0241 31.0068 6.78112C27.505 9.53905 25.508 13.9781 27.1089 16.2646C28.7104 18.5453 33.3029 17.8068 36.8074 15.0486C40.3077 12.2904 41.1764 8.73019 39.5761 6.44405ZM22.6878 24.1225C22.6485 25.9756 20.5152 28.2368 19.4962 26.4952C18.941 25.162 20.337 22.736 21.6296 22.6948C22.6716 22.6948 22.6963 23.6802 22.6878 24.1225Z" fill="#F05D26"/>
</svg>
